# xmcd
#
# Track frame offsets: 
#        150
#        18752
#        56658
#        96525
#
# Disc length: 1885 seconds
#
# Revision: 2
# Processed by: cddbd v1.5.2PL0 Copyright (c) Steve Scherf et al.
# Submitted via: ExactAudioCopy v1.1
#
DISCID=2c075b04
DTITLE=The Rolling Stones - Sympathy For The Devil Remix
DYEAR=2003
DGENRE=Rock
TTITLE0=Sympathy For The Devil (The Neptunes Radio Edit)
TTITLE1=Sympathy For The Devil (Fatboy Slim Full Length Remix)
TTITLE2=Sympathy For The Devil (Original)
TTITLE3=DATA
EXTD=
EXTT0=
EXTT1=
EXTT2=
EXTT3=
PLAYORDER=
